<svg width="100" height="100" viewBox="0 0 100 100" fill="none" xmlns="http://www.w3.org/2000/svg">
<rect width="100" height="100" fill="#191919"/>
<g clip-path="url(#clip0_766_3617)">
<path d="M86.3992 34.5541C84.6079 33.9531 82.7721 33.4985 80.9099 33.1873C76.7797 32.4973 72.6263 31.9522 68.4565 31.5652C66.7955 31.4104 65.1329 31.2819 63.4686 31.1765C54.6259 30.6232 45.4335 30.7385 38.0489 33.049C30.9002 35.2837 23.0307 44.3164 18.5903 50.2252C16.6539 52.8024 11.755 58.6469 17.8102 59.6054C20.8715 60.0895 25.5213 60.0434 28.6652 59.8903C30.5291 59.798 34.6956 59.3748 35.8518 57.784C36.6997 56.6214 37.5343 54.576 38.359 53.2289C42.8274 45.922 51.0961 37.5266 59.8596 36.0017C62.6604 35.5142 65.5321 35.697 68.3526 35.8074C68.5654 35.8172 68.7765 35.8238 68.9877 35.8304C75.3116 36.0445 79.1598 36.4101 82.8001 36.8103C84.4809 36.9947 86.1815 36.8531 87.8079 36.3887C88.4759 36.1977 88.4974 35.2606 87.8392 35.04L86.3992 34.5574V34.5541ZM20.3256 56.6625L20.0732 56.8239C19.5371 56.5505 18.3297 56.4122 17.8926 56.0532C16.9227 55.2529 18.3116 53.1433 18.9664 52.4549C20.4872 53.4381 20.5482 55.0108 20.3256 56.6609V56.6625ZM34.8556 54.9597C33.7323 56.6032 31.5897 56.702 29.772 56.875C31.108 54.3241 33.3496 53.061 36.0547 52.3018C36.1586 52.4385 35.0552 54.6699 34.8556 54.9597ZM45.8739 39.4238C44.3581 40.756 40.8299 44.6573 39.3272 45.3061C37.686 46.0126 35.037 46.0999 33.2457 46.1641C30.3064 46.2679 27.344 46.0752 24.403 46.1575C24.342 45.9303 24.5003 45.8957 24.5993 45.7656C26.3378 43.4732 32.0828 37.5168 34.6214 36.5567C37.6464 35.4121 42.7268 35.3314 45.9432 35.4385C47.3766 35.4862 48.7885 35.5093 50.1971 35.8354C48.7934 37.0721 47.2809 38.1903 45.8756 39.427L45.8739 39.4238Z" fill="white"/>
<path d="M90 41.8446L89.9274 42.3601L87.163 47.4701L67.8182 47.4767C65.895 47.8785 63.6451 50.1807 64.6133 52.2211C64.8509 52.7218 65.1807 52.949 65.7201 53.0775C71.0924 53.3904 76.8852 52.6872 82.208 53.0874C85.0434 53.2998 87.6314 55.3155 87.9036 58.2517C88.4347 63.981 83.4484 69.2919 77.8881 69.9474C70.812 70.2421 63.7012 70.0033 56.6118 70.0791C56.4436 69.9078 57.1875 68.5262 57.3277 68.2446C57.8126 67.2664 58.6506 65.4993 59.251 64.6743C59.345 64.5442 59.4077 64.3993 59.5842 64.3532L78.7953 64.3169C79.9549 64.0156 80.9627 63.4408 81.5977 62.4099C82.6171 60.7582 82.6352 58.8989 80.3408 58.614C78.3598 58.367 75.7306 58.5762 73.7051 58.5712C70.9027 58.5646 64.5803 59.0686 62.286 58.0772C54.2779 54.6156 61.1495 42.0933 68.2025 41.9747L90.0033 41.8446H90Z" fill="white"/>
<path d="M54.2284 70.0527L41.2225 70.0856C37.9467 69.9901 35.4477 67.9678 35.6655 64.526C35.8436 61.7215 39.3437 55.2281 40.8315 52.5603C42.6278 49.3408 47.3502 43.269 50.8899 42.08C51.1142 42.0043 52.1336 41.6881 52.1567 42.0389L41.7932 62.4099C41.5128 62.9764 41.4253 63.9365 42.1115 64.2296C42.7416 64.4997 43.9507 64.3152 44.6253 64.3218C48.7522 64.3547 52.8824 64.2609 57.0077 64.391L57.0803 64.7302L54.2267 70.0543L54.2284 70.0527Z" fill="white"/>
<path d="M35.5318 70.0807L35.2399 69.8255C34.5174 69.1964 33.9847 68.3796 33.6993 67.4656H19.5586L22.5705 65.3741H19.232L10 70.0807H35.5318Z" fill="white"/>
<path d="M34.2222 61.3214C33.2161 62.2354 33.1682 63.1428 33.4222 64.3137L17.6898 64.2972C16.7611 64.1342 16.2135 63.3091 16.5467 62.3029C16.7182 61.7842 17.0547 61.3231 17.6584 61.3231H34.2222V61.3214Z" fill="white"/>
</g>
<defs>
<clipPath id="clip0_766_3617">
<rect width="80" height="39.1989" fill="white" transform="translate(10 30.8999)"/>
</clipPath>
</defs>
</svg>
